<svg xmlns="http://www.w3.org/2000/svg" xml:space="preserve" width="100" height="100" viewBox="0 0 410 410"><path d="M345.01 207.769v.001L250 297.5 385 410V170z" style="fill:#d80027"/><path d="M25 170v240l135-112.5z" style="fill:#ff5023"/><path d="M160 297.5 25 410h180v-70z" style="fill:#d80027"/><path d="M205 340v70h180L250 297.5z" style="fill:#a2001d"/><path d="M64.993 132.229 25 170h39.99zM385 170l-39.995-37.773.003 37.773zM205 0l-63.787 60.243 127.413-.151z" style="fill:#ff5023"/><path d="M345.01 207.769 385 170h-39.992zM205 340 64.986 207.765 64.99 170H25l135 127.5z" style="fill:#a2001d"/><path d="M64.986 207.765 205 340l45-42.5 95.01-89.73v-.001L345.008 170l-.003-37.773L345 60l-76.374.092-127.413.151L65 60.334l-.007 71.895L64.99 170zM115 180h180v30H115zm0-30v-30h180v30z" style="fill:#dedde0"/><path d="M115 120h180v30H115zM115 180h180v30H115z" style="fill:#fff"/></svg>