<svg xmlns="http://www.w3.org/2000/svg" width="100" height="100" viewBox="0 0 128 128"><path d="M102 4a9.99 9.99 0 0 0-8.3 4.441L72.706 4.664l-3.434-.621-1.148 3.57-9.848 30.621c-13.265 1.036-24.996 5.63-33.343 12.399A13 13 0 0 0 15 46 13 13 0 0 0 2.145 57.602a13 13 0 0 0 10.074 14.082A27 27 0 0 0 12 75c0 20.441 23.281 37 52 37s52-16.559 52-37a27 27 0 0 0-.219-3.309c6.469-1.433 10.82-7.504 10.11-14.09C125.176 51.017 119.625 46.017 113 46a13 13 0 0 0-9.934 4.633c-8.199-6.653-19.671-11.188-32.652-12.324l4.77-25.075 17.09 3.079A9.999 9.999 0 0 0 112 14c0-5.523-4.477-10-10-10M42.3 58c5.36 0 9.7 4.48 9.7 10s-4.34 10-9.7 10c-5.34.121-9.698-4.48-9.698-10S36.96 58 42.3 58m43.4 0c5.34 0 9.698 4.48 9.698 10S91.04 78.121 85.7 78C80.34 78 76 73.52 76 68s4.34-10 9.7-10M44.397 86.8c.059.04 7.262 6 19.602 6s20.223-5.081 20.281-5.12l4.117 5.52C88.02 93.48 79.16 100 64 100s-24.02-6.52-24.398-6.8Zm0 0" style="stroke:none;fill-rule:nonzero;fill:#ff5700;fill-opacity:1"/></svg>