<svg xmlns="http://www.w3.org/2000/svg" width="100" height="100" fill="none" viewBox="0 0 24 24"><path fill="#101828" d="M21.772 18.703q-.549 1.257-1.302 2.32-1.028 1.451-1.677 2.009-1.004.915-2.156.94-.829.001-1.991-.47-1.165-.47-2.144-.47-1.027 0-2.204.47-1.179.472-1.905.496-1.105.047-2.205-.966-.702-.606-1.754-2.08Q3.306 19.38 2.579 17.3q-.78-2.246-.78-4.352 0-2.413 1.054-4.158a6.15 6.15 0 0 1 2.206-2.21 6 6 0 0 1 2.982-.835q.877.002 2.306.532 1.428.532 1.83.533.302 0 2.029-.628 1.63-.58 2.757-.485 3.058.244 4.586 2.393-2.732 1.643-2.705 4.593c.016 1.531.577 2.806 1.678 3.817q.748.705 1.678 1.09-.202.58-.428 1.113M17.1.48q0 1.801-1.325 3.358c-1.064 1.234-2.351 1.946-3.747 1.834a4 4 0 0 1-.028-.455c0-1.152.506-2.386 1.405-3.394q.673-.765 1.711-1.273Q16.151.048 17.074 0q.026.24.025.48"/></svg>