<svg xmlns="http://www.w3.org/2000/svg" width="100" height="100" fill="none" viewBox="0 0 24 24"><path fill="#1D9BF0" d="M21.057 7.181c.01.211.01.413.01.624.009 6.403-4.696 13.795-13.3 13.795-2.537 0-5.028-.758-7.167-2.179a9.174 9.174 0 0 0 6.918-2.016c-2-.038-3.76-1.392-4.371-3.37a4.37 4.37 0 0 0 2.111-.086c-2.176-.441-3.741-2.429-3.75-4.742v-.058c.648.375 1.38.586 2.12.605C1.582 8.334.943 5.5 2.184 3.284c2.38 3.033 5.88 4.867 9.64 5.068a4.98 4.98 0 0 1 1.352-4.636c1.88-1.834 4.844-1.738 6.622.21a9.1 9.1 0 0 0 2.972-1.18 4.86 4.86 0 0 1-2.055 2.678 9.4 9.4 0 0 0 2.685-.758 9.8 9.8 0 0 1-2.343 2.515"/></svg>