<?xml version="1.0" encoding="iso-8859-1"?>
<!-- Uploaded to: SVG Repo, www.svgrepo.com, Generator: SVG Repo Mixer Tools -->
<!DOCTYPE svg PUBLIC "-//W3C//DTD SVG 1.1//EN" "http://www.w3.org/Graphics/SVG/1.1/DTD/svg11.dtd">
<svg fill="#000000" version="1.1" id="Capa_1" xmlns="http://www.w3.org/2000/svg" xmlns:xlink="http://www.w3.org/1999/xlink" 
	 width="800px" height="800px" viewBox="0 0 56.48 56.48" xml:space="preserve"
	>
<g>
	<path d="M47.494,31.306c0,0.238-0.007,0.477,0.003,0.715c0.007,0.168-0.065,0.256-0.213,0.32c-0.542,0.239-1.101,0.365-1.696,0.268
		c-0.429-0.072-0.68-0.362-0.672-0.903c0.012-0.918,0.215-1.333,1.331-1.417c0.334-0.025,0.671,0.001,1.007-0.007
		c0.188-0.006,0.248,0.08,0.243,0.256C47.489,30.794,47.494,31.05,47.494,31.306z M23.896,31.302c0-0.273,0.01-0.549-0.007-0.82
		c-0.004-0.068-0.098-0.188-0.147-0.188c-0.553,0.021-1.108,0.034-1.657,0.104c-0.337,0.043-0.584,0.287-0.651,0.624
		c-0.063,0.313-0.082,0.646-0.056,0.968c0.029,0.354,0.283,0.559,0.631,0.618c0.557,0.095,1.083-0.011,1.601-0.214
		c0.222-0.088,0.317-0.213,0.291-0.455C23.88,31.728,23.897,31.513,23.896,31.302z M56.48,11.393v33.695
		c0,0.803-0.65,1.454-1.454,1.454H1.454C0.65,46.542,0,45.89,0,45.087V11.393c0-0.803,0.65-1.454,1.454-1.454h53.572
		C55.83,9.939,56.48,10.591,56.48,11.393z M7.672,22.458c0-0.323-0.069-0.396-0.384-0.399c-0.469-0.003-0.937-0.005-1.406,0.001
		c-0.49,0.007-0.762,0.287-0.762,0.78c0,1.82,0,3.642,0,5.462c0,1.848,0,3.693,0,5.541c0,0.323,0.044,0.369,0.368,0.369
		c0.477,0.004,0.955,0.004,1.432,0c0.5-0.005,0.751-0.256,0.751-0.75C7.673,29.793,7.673,26.125,7.672,22.458z M14.138,33.933
		c-0.137-1.357-0.631-2.562-1.582-3.558c-1.023-1.069-2.283-1.659-3.656-1.795c-0.443-0.008-0.447-0.008-0.435,0.325
		c0.004,0.123,0.029,0.244,0.047,0.367c0.246,1.627,1.042,2.925,2.366,3.894c0.868,0.638,1.85,0.97,2.919,1.07
		C14.115,34.267,14.17,34.246,14.138,33.933z M13.803,22.089c-0.122,0.02-0.248,0.012-0.369,0.03
		c-1.393,0.222-2.575,0.839-3.516,1.895c-0.861,0.967-1.34,2.105-1.453,3.394c-0.029,0.336-0.01,0.337,0.343,0.382
		c0.485-0.119,0.989-0.192,1.453-0.369c2.315-0.88,3.583-2.586,3.875-5.033C14.175,22.075,14.124,22.04,13.803,22.089z M17.8,24.075
		c0-0.53,0.001-1.06,0-1.59c-0.001-0.363-0.067-0.427-0.438-0.428c-0.512,0-1.024,0-1.537,0c-0.384,0.001-0.421,0.039-0.421,0.429
		c0,1.882,0,3.764,0,5.646c0,1.916,0,3.832,0,5.752c0,0.316,0.055,0.373,0.368,0.375c0.503,0.002,1.007,0,1.511,0
		c0.474,0,0.517-0.043,0.517-0.51C17.8,30.525,17.8,27.3,17.8,24.075z M26.283,33.9c-0.012-2.021-0.002-4.045-0.055-6.064
		c-0.035-1.351-0.803-2.256-2.104-2.579c-1.441-0.357-2.871-0.148-4.292,0.155c-0.169,0.035-0.239,0.156-0.235,0.334
		c0.008,0.317,0.002,0.636,0.002,0.954c0,0.453,0.06,0.476,0.508,0.449c0.915-0.052,1.832-0.091,2.749-0.091
		c0.548,0,0.879,0.309,0.97,0.804c0.028,0.153,0.017,0.317,0.017,0.476c0.002,0.614,0.001,0.62-0.605,0.613
		c-0.848-0.008-1.693,0.02-2.514,0.268c-0.847,0.256-1.456,0.758-1.64,1.66c-0.118,0.584-0.106,1.174,0.036,1.758
		c0.197,0.813,0.689,1.367,1.492,1.604c0.892,0.265,1.776,0.226,2.624-0.187c0.243-0.119,0.474-0.264,0.746-0.416
		c0.011,0.084,0.02,0.127,0.021,0.17c0.02,0.4,0.071,0.449,0.475,0.449c0.477,0.002,0.954,0.002,1.431,0
		C26.186,34.257,26.284,34.171,26.283,33.9z M32.653,26.708c-0.011-0.434-0.009-0.865-0.001-1.299
		c0.004-0.238-0.102-0.34-0.336-0.33c-0.689,0.029-1.312,0.246-1.872,0.65c-0.075,0.055-0.151,0.106-0.267,0.188
		c-0.008-0.126-0.019-0.201-0.02-0.277c-0.008-0.381-0.075-0.451-0.447-0.451c-0.478-0.002-0.956-0.001-1.433-0.001
		c-0.437,0.001-0.509,0.071-0.509,0.506c0,1.22,0,2.438,0,3.659c0,1.477-0.001,2.951,0,4.428c0,0.391,0.086,0.479,0.458,0.479
		c0.504,0.002,1.008,0.002,1.512,0c0.407,0,0.472-0.062,0.472-0.479c0-1.961,0.002-3.924-0.005-5.886
		c0-0.194,0.058-0.305,0.235-0.389c0.59-0.277,1.193-0.485,1.857-0.458C32.539,27.056,32.658,26.965,32.653,26.708z M41.401,33.792
		c0-1.785,0.011-3.568-0.007-5.354c-0.006-0.481-0.063-0.97-0.163-1.441c-0.209-0.979-0.771-1.667-1.8-1.848
		c-1.127-0.199-2.197-0.04-3.164,0.615c-0.094,0.063-0.19,0.12-0.353,0.224c-0.01-0.19-0.021-0.309-0.022-0.428
		c-0.006-0.312-0.062-0.37-0.375-0.372c-0.494-0.003-0.988-0.004-1.483,0.001c-0.291,0.002-0.378,0.092-0.378,0.383
		c-0.001,2.757-0.001,5.515,0,8.271c0,0.325,0.087,0.414,0.404,0.416c0.548,0.002,1.096-0.006,1.644,0.004
		c0.245,0.002,0.354-0.092,0.351-0.346c-0.008-0.548-0.002-1.096-0.002-1.644c0-1.458-0.002-2.916,0.006-4.374
		c0-0.12,0.033-0.301,0.113-0.351c0.604-0.375,1.258-0.605,1.985-0.485c0.399,0.065,0.681,0.3,0.756,0.713
		c0.052,0.285,0.093,0.576,0.093,0.865c0.01,1.731,0.004,3.464,0.006,5.195c0,0.381,0.041,0.422,0.429,0.422
		c0.495,0,0.989,0,1.483,0C41.352,34.259,41.401,34.212,41.401,33.792z M49.834,33.849c0-1.838,0.004-3.676-0.002-5.516
		c0-0.271-0.014-0.547-0.055-0.816c-0.164-1.058-0.729-1.813-1.758-2.154c-0.43-0.145-0.889-0.243-1.34-0.271
		c-1.08-0.068-2.147,0.062-3.203,0.3c-0.23,0.053-0.329,0.179-0.328,0.405c0.001,0.292,0,0.583,0,0.875
		c0,0.469,0.066,0.505,0.521,0.48c0.907-0.052,1.815-0.092,2.723-0.098c0.586-0.002,0.914,0.3,1.015,0.88
		c0.044,0.259,0.021,0.528,0.034,0.792c0.009,0.176-0.073,0.23-0.239,0.228c-0.38-0.007-0.765-0.038-1.139,0.007
		c-0.646,0.076-1.3,0.149-1.921,0.322c-0.828,0.232-1.362,0.811-1.5,1.682c-0.057,0.36-0.045,0.735-0.028,1.103
		c0.069,1.491,1.207,2.471,2.696,2.351c0.753-0.061,1.461-0.236,2.078-0.697c0.041-0.028,0.092-0.043,0.149-0.071
		c0.028,0.041,0.043,0.054,0.046,0.069c0.008,0.043,0.012,0.086,0.014,0.131c0.021,0.386,0.045,0.41,0.44,0.41
		c0.459,0.002,0.919,0.002,1.378,0C49.789,34.259,49.834,34.214,49.834,33.849z M50.655,24.564h-0.474v0.069h0.195v0.569h0.082
		v-0.569h0.195L50.655,24.564L50.655,24.564z M51.36,25.203l-0.04-0.639h-0.105l-0.113,0.309c-0.029,0.081-0.051,0.15-0.069,0.216
		H51.03c-0.017-0.067-0.038-0.138-0.063-0.216l-0.109-0.309h-0.105l-0.045,0.639h0.079l0.017-0.274
		c0.006-0.098,0.011-0.203,0.013-0.282h0.002c0.019,0.075,0.043,0.158,0.073,0.248l0.104,0.305h0.062l0.113-0.311
		c0.032-0.088,0.059-0.168,0.08-0.242h0.002c0,0.078,0.006,0.188,0.01,0.275l0.016,0.281H51.36z"/>
</g>
</svg>